<svg width="49" height="49" viewBox="0 0 49 49" fill="none" xmlns="http://www.w3.org/2000/svg">
<rect x="0.5" y="0.5" width="48" height="48" rx="24" fill="#191000"/>
<path d="M15.6328 16.9649C15.6328 16.2303 16.2283 15.6348 16.9629 15.6348C17.6975 15.6348 18.2931 16.2303 18.2931 16.9649L18.2931 32.0384C18.2931 32.773 17.6975 33.3685 16.9629 33.3685C16.2283 33.3685 15.6328 32.773 15.6328 32.0384L15.6328 16.9649ZM33.3658 29.3464C33.3658 31.0653 31.4501 32.0906 30.0198 31.1371L22.7521 26.292C21.4743 25.4401 21.4743 23.5624 22.7521 22.7105L30.0198 17.8654C31.4501 16.9119 33.3658 17.9372 33.3658 19.6561L33.3658 29.3464Z" fill="#FF8A34"/>
</svg>
