<svg width="49" height="49" viewBox="0 0 49 49" fill="none" xmlns="http://www.w3.org/2000/svg">
<rect width="48" height="48" rx="24" transform="matrix(-1 1.71111e-09 1.11526e-07 1 48.5 0.5)" fill="#191000"/>
<path d="M33.3672 16.9649C33.3672 16.2303 32.7717 15.6348 32.0371 15.6348C31.3025 15.6348 30.7069 16.2303 30.7069 16.9649L30.7069 32.0384C30.7069 32.773 31.3025 33.3685 32.0371 33.3685C32.7717 33.3685 33.3672 32.773 33.3672 32.0384L33.3672 16.9649ZM15.6342 29.3464C15.6342 31.0653 17.5499 32.0906 18.9802 31.1371L26.2479 26.292C27.5257 25.4401 27.5257 23.5624 26.2479 22.7105L18.9802 17.8654C17.5499 16.9119 15.6342 17.9372 15.6342 19.6561L15.6342 29.3464Z" fill="#FF8A34"/>
</svg>
